<mxfile host="app.diagrams.net" agent="Mozilla/5.0 (Windows NT 10.0; Win64; x64) AppleWebKit/537.36 (KHTML, like Gecko) Chrome/132.0.0.0 Safari/537.36" version="26.0.6">
  <diagram name="Page-1" id="w4q2iSw2zgLWdawcd-g0">
    <mxGraphModel dx="1995" dy="1639" grid="1" gridSize="10" guides="1" tooltips="1" connect="1" arrows="1" fold="1" page="1" pageScale="1" pageWidth="850" pageHeight="1100" math="0" shadow="0">
      <root>
        <mxCell id="0" />
        <mxCell id="1" parent="0" />
        <mxCell id="9Yzj6KS5WvhUXWPUhDKN-1" value="" style="endArrow=classic;html=1;rounded=0;fontSize=14;strokeWidth=2;" edge="1" parent="1">
          <mxGeometry width="50" height="50" relative="1" as="geometry">
            <mxPoint as="sourcePoint" />
            <mxPoint y="-360" as="targetPoint" />
          </mxGeometry>
        </mxCell>
        <mxCell id="9Yzj6KS5WvhUXWPUhDKN-2" value="" style="endArrow=classic;html=1;rounded=0;strokeWidth=2;" edge="1" parent="1">
          <mxGeometry width="50" height="50" relative="1" as="geometry">
            <mxPoint as="sourcePoint" />
            <mxPoint x="410" as="targetPoint" />
          </mxGeometry>
        </mxCell>
        <mxCell id="9Yzj6KS5WvhUXWPUhDKN-4" value="Price" style="text;html=1;align=center;verticalAlign=middle;resizable=0;points=[];autosize=1;strokeColor=none;fillColor=none;fontStyle=1;fontSize=13;fontFamily=Verdana;" vertex="1" parent="1">
          <mxGeometry x="-30" y="-390" width="50" height="30" as="geometry" />
        </mxCell>
        <mxCell id="9Yzj6KS5WvhUXWPUhDKN-5" value="Quantity" style="text;html=1;align=center;verticalAlign=middle;resizable=0;points=[];autosize=1;strokeColor=none;fillColor=none;fontStyle=1;fontSize=13;" vertex="1" parent="1">
          <mxGeometry x="400" y="-20" width="70" height="30" as="geometry" />
        </mxCell>
        <mxCell id="9Yzj6KS5WvhUXWPUhDKN-6" value="" style="endArrow=none;html=1;rounded=0;" edge="1" parent="1">
          <mxGeometry width="50" height="50" relative="1" as="geometry">
            <mxPoint x="30" y="-20" as="sourcePoint" />
            <mxPoint x="360" y="-330" as="targetPoint" />
          </mxGeometry>
        </mxCell>
        <mxCell id="9Yzj6KS5WvhUXWPUhDKN-7" value="&lt;b&gt;MSC = MPC&lt;/b&gt;" style="text;html=1;align=center;verticalAlign=middle;resizable=0;points=[];autosize=1;strokeColor=none;fillColor=none;" vertex="1" parent="1">
          <mxGeometry x="335" y="-360" width="90" height="30" as="geometry" />
        </mxCell>
        <mxCell id="9Yzj6KS5WvhUXWPUhDKN-9" value="" style="endArrow=none;html=1;rounded=0;" edge="1" parent="1">
          <mxGeometry width="50" height="50" relative="1" as="geometry">
            <mxPoint x="140" y="-360" as="sourcePoint" />
            <mxPoint x="360" y="-110" as="targetPoint" />
          </mxGeometry>
        </mxCell>
        <mxCell id="9Yzj6KS5WvhUXWPUhDKN-10" value="" style="endArrow=none;html=1;rounded=0;fontStyle=1;strokeWidth=1;" edge="1" parent="1">
          <mxGeometry width="50" height="50" relative="1" as="geometry">
            <mxPoint x="20" y="-320" as="sourcePoint" />
            <mxPoint x="280" y="-20" as="targetPoint" />
            <Array as="points">
              <mxPoint x="170" y="-150" />
            </Array>
          </mxGeometry>
        </mxCell>
        <mxCell id="9Yzj6KS5WvhUXWPUhDKN-11" value="&lt;b&gt;MPB&lt;/b&gt;" style="text;html=1;align=center;verticalAlign=middle;resizable=0;points=[];autosize=1;strokeColor=none;fillColor=none;" vertex="1" parent="1">
          <mxGeometry x="355" y="-122" width="50" height="30" as="geometry" />
        </mxCell>
        <mxCell id="9Yzj6KS5WvhUXWPUhDKN-12" value="&lt;b&gt;MSB&lt;/b&gt;" style="text;html=1;align=center;verticalAlign=middle;resizable=0;points=[];autosize=1;strokeColor=none;fillColor=none;" vertex="1" parent="1">
          <mxGeometry x="275" y="-40" width="50" height="30" as="geometry" />
        </mxCell>
        <mxCell id="9Yzj6KS5WvhUXWPUhDKN-13" value="" style="endArrow=none;dashed=1;html=1;rounded=0;jumpSize=4;" edge="1" parent="1">
          <mxGeometry width="50" height="50" relative="1" as="geometry">
            <mxPoint y="-230" as="sourcePoint" />
            <mxPoint x="254" y="-230" as="targetPoint" />
          </mxGeometry>
        </mxCell>
        <mxCell id="9Yzj6KS5WvhUXWPUhDKN-14" value="" style="endArrow=none;dashed=1;html=1;rounded=0;jumpSize=4;" edge="1" parent="1">
          <mxGeometry width="50" height="50" relative="1" as="geometry">
            <mxPoint y="-150" as="sourcePoint" />
            <mxPoint x="170" y="-150" as="targetPoint" />
            <Array as="points">
              <mxPoint x="90" y="-150" />
            </Array>
          </mxGeometry>
        </mxCell>
        <mxCell id="9Yzj6KS5WvhUXWPUhDKN-15" value="&lt;b&gt;P*&lt;/b&gt;" style="text;html=1;align=center;verticalAlign=middle;resizable=0;points=[];autosize=1;strokeColor=none;fillColor=none;" vertex="1" parent="1">
          <mxGeometry x="-30" y="-162" width="40" height="30" as="geometry" />
        </mxCell>
        <mxCell id="9Yzj6KS5WvhUXWPUhDKN-16" value="&lt;b&gt;P&lt;sub&gt;1&lt;/sub&gt;&lt;/b&gt;" style="text;html=1;align=center;verticalAlign=middle;resizable=0;points=[];autosize=1;strokeColor=none;fillColor=none;" vertex="1" parent="1">
          <mxGeometry x="-30" y="-240" width="40" height="30" as="geometry" />
        </mxCell>
        <mxCell id="9Yzj6KS5WvhUXWPUhDKN-17" value="" style="endArrow=none;dashed=1;html=1;rounded=0;" edge="1" parent="1">
          <mxGeometry width="50" height="50" relative="1" as="geometry">
            <mxPoint x="170" as="sourcePoint" />
            <mxPoint x="170" y="-150" as="targetPoint" />
          </mxGeometry>
        </mxCell>
        <mxCell id="9Yzj6KS5WvhUXWPUhDKN-18" value="" style="endArrow=none;dashed=1;html=1;rounded=0;" edge="1" parent="1">
          <mxGeometry width="50" height="50" relative="1" as="geometry">
            <mxPoint x="255" as="sourcePoint" />
            <mxPoint x="254.76" y="-230" as="targetPoint" />
          </mxGeometry>
        </mxCell>
        <mxCell id="9Yzj6KS5WvhUXWPUhDKN-20" value="&lt;b&gt;Q*&lt;/b&gt;" style="text;html=1;align=center;verticalAlign=middle;resizable=0;points=[];autosize=1;strokeColor=none;fillColor=none;" vertex="1" parent="1">
          <mxGeometry x="150" width="40" height="30" as="geometry" />
        </mxCell>
        <mxCell id="9Yzj6KS5WvhUXWPUhDKN-21" value="&lt;b&gt;Q&lt;sub&gt;1&lt;/sub&gt;&lt;/b&gt;" style="text;html=1;align=center;verticalAlign=middle;resizable=0;points=[];autosize=1;strokeColor=none;fillColor=none;" vertex="1" parent="1">
          <mxGeometry x="235" width="40" height="30" as="geometry" />
        </mxCell>
        <mxCell id="9Yzj6KS5WvhUXWPUhDKN-33" value="Untitled Layer" parent="0" />
      </root>
    </mxGraphModel>
  </diagram>
</mxfile>
